<svg xmlns="http://www.w3.org/2000/svg" viewBox="0 0 600 600" width="600" height="600">
  <defs>
    <linearGradient id="bg4" x1="0%" y1="0%" x2="100%" y2="100%">
      <stop offset="0%" style="stop-color:#ffe4e6"/>
      <stop offset="100%" style="stop-color:#fecdd3"/>
    </linearGradient>
  </defs>
  <rect width="600" height="600" fill="url(#bg4)"/>
  <!-- Shield -->
  <path d="M300 100 L420 160 L420 320 Q420 440 300 500 Q180 440 180 320 L180 160 Z" fill="#fff1f2" stroke="#f43f5e" stroke-width="4"/>
  <path d="M300 100 L420 160 L420 320 Q420 440 300 500 Q180 440 180 320 L180 160 Z" fill="#f43f5e" opacity="0.08"/>
  <!-- Check mark -->
  <path d="M240 300 L280 340 L370 240" fill="none" stroke="#059669" stroke-width="12" stroke-linecap="round" stroke-linejoin="round"/>
  <!-- Lock icon top -->
  <rect x="275" y="180" width="50" height="36" rx="6" fill="#f43f5e"/>
  <path d="M285 180 L285 155 Q285 135 300 135 Q315 135 315 155 L315 180" fill="none" stroke="#f43f5e" stroke-width="6" stroke-linecap="round"/>
  <circle cx="300" cy="200" r="5" fill="white"/>
  <line x1="300" y1="205" x2="300" y2="212" stroke="white" stroke-width="3" stroke-linecap="round"/>
  <!-- Title -->
  <text x="300" y="545" text-anchor="middle" font-family="Inter,sans-serif" font-size="28" font-weight="700" fill="#881337">Privasi 100% Terjaga</text>
  <text x="300" y="572" text-anchor="middle" font-family="Inter,sans-serif" font-size="16" fill="#9f1239">Ruang Tertutup · Aurat Aman</text>
</svg>
